<?xml version="1.0" encoding="UTF-8"?>
<svg id="Capa_1" xmlns="http://www.w3.org/2000/svg" viewBox="0 0 64 64">
  <defs>
    <style>
      .cls-1 {
        fill: #f9fbfb;
      }

      .cls-2 {
        fill: #fbfcfc;
      }

      .cls-3 {
        fill: #f8fafa;
      }

      .cls-4 {
        fill: #f9fafa;
      }

      .cls-5 {
        fill: #fcfdfc;
      }

      .cls-6 {
        fill: #f5f7f8;
      }

      .cls-7 {
        fill: #f4f7f8;
      }

      .cls-8 {
        fill: #fbfcfb;
      }

      .cls-9 {
        fill: #fcfcfc;
      }

      .cls-10 {
        fill: #fafbfb;
      }

      .cls-11 {
        fill: #f7f9fa;
      }
    </style>
  </defs>
  <path class="cls-9" d="M28.63,37.53c-.52-.71-1.03-1.41-1.56-2.1-.2-.26-.13-.51-.06-.76,2.67-10.77,8.9-18.64,18.95-23.48,1.11-.54,1.92-.52,2.82.36.96.93,1.97,1.8,2.87,2.78.28.31.35.45-.16.6-5.81,1.68-10.78,4.81-15.04,9.04-3.56,3.54-5.79,7.91-7.43,12.6-.1.27-.19.55-.28.82-.01.04-.05.07-.1.14Z"/>
  <path class="cls-5" d="M32.41,6.62c2.32.03,4.58.37,6.8,1.08.63.2.79.34.37.97-1.37,2.03-2.67,4.14-3.43,6.47-.64,1.97-1.68,3.59-3.03,5.09-.8.88-.69.88-1.48.02-1.37-1.49-2.36-3.15-3.03-5.09-.8-2.31-2.09-4.42-3.41-6.48-.33-.51-.35-.71.29-.93,2.25-.76,4.56-1.11,6.93-1.14Z"/>
  <path class="cls-5" d="M29.72,25.31c-4.68-5-10.17-8.63-16.81-10.55.37-.58.84-1.01,1.29-1.46.81-.83,1.71-1.57,2.62-2.31.4-.32.74-.34,1.19-.16,1.65.66,3.19,1.52,4.67,2.49,3.33,2.16,6.44,4.57,8.83,7.81.33.44.42.74.06,1.24-.66.92-1.21,1.92-1.85,2.94Z"/>
  <path class="cls-10" d="M39.3,34.9c-.18,1.8-.43,3.57-.55,5.36-.02.35-.28.56-.47.8-1.93,2.46-3.4,5.18-4.43,8.13-.02.05,0,.11-.04.14-.51.61-1.2.3-1.81.32-.35.01-.8.18-1.01-.42-1.01-3.01-2.52-5.76-4.5-8.25-.15-.19-.29-.38-.32-.63-.22-1.8-.44-3.6-.69-5.62,2.37,2.7,4.08,5.61,5.62,8.66.19-1.62.4-3.22.42-4.83.01-1.63.08-3.25,0-4.87-.06-1.09.29-1.98.91-2.89.51.85.96,1.61.91,2.66-.15,3.25-.02,6.5.33,9.74,0,.06.04.12.09.31,1.53-3.15,3.24-6.05,5.54-8.6Z"/>
  <path class="cls-8" d="M37.47,43.75c-.02-.24,0-.38.09-.5.06-.08.09-.18.16-.24,1.86-1.5,1.82-3.66,2.1-5.76.9-6.72,3.26-12.84,7.79-18,1.59-1.82,1.62-1.79,2.83.29.39.67.96,1.36.95,2.09,0,.77-1,.98-1.52,1.48-5.03,4.81-8.19,10.57-9.08,17.51-.29,2.25-.33,4.5-.1,6.75.04.41-.06.62-.46.75-.62.2-1.23.45-1.85.66-.19.07-.46.18-.46-.2-.03-1.65-.23-3.29-.45-4.83Z"/>
  <path class="cls-8" d="M24.31,44.89c0-8.6-3.08-15.69-9.1-21.52-.43-.42-.9-.82-1.41-1.14-.46-.29-.45-.57-.26-1.01.48-1.06,1.09-2.05,1.7-3.04.28-.44.44-.48.84-.1,1.93,1.84,3.5,3.96,4.77,6.3,2.49,4.57,3.98,9.45,4.38,14.64.04.53.12,1.06.13,1.59,0,.31.16.5.36.68,1.3,1.18,1.98,2.52,1.44,4.36-.24.82-.2,1.73-.2,2.6,0,.63-.21.65-.73.48-2.12-.69-2.12-.67-1.96-2.88.03-.39.04-.77.05-.95Z"/>
  <path class="cls-10" d="M29.78,54.63c-.45-.45-1.02-.56-1.58-.7-.94-.23-1.89-.43-2.82-.69-2.05-.57-2.93-2.13-3.35-4.09,1.88,1.71,4.35,1.59,6.59,2.12,1.61.38,2.71,2.03,3.07,3.46.06.22-.07.37-.19.52-1.08,1.4-2.79,2.77-5.02,1.95-.7-.26-1.45-.38-2.17-.61-1.2-.4-2.37-.51-3.54.13.05-.47.09-.55.64-1.2,1.13-1.34,2.46-1.96,4.24-1.3,1.09.4,2.22.7,3.41.59.23-.02.48.03.71-.18Z"/>
  <path class="cls-10" d="M35.02,54.7c.83.17,1.57.19,2.3.03.73-.16,1.47-.33,2.18-.58,1.26-.45,2.33-.15,3.3.7.57.5,1.03,1.09,1.41,1.74-.06.04-.1.1-.12.09-1.25-.6-2.48-.45-3.74-.02-.82.28-1.68.46-2.53.67-1.6.39-3.9-.76-4.58-2.26-.08-.17-.07-.32-.02-.48.56-1.77,1.52-3.12,3.53-3.42,1.05-.16,2.09-.41,3.14-.61,1.09-.21,2.08-.63,2.89-1.48.05,1.5-1.3,3.45-2.73,3.99-1.09.41-2.24.63-3.37.87-.56.12-1.13.24-1.65.76Z"/>
  <path class="cls-2" d="M22.26,36.28c-.26.04-.38-.19-.53-.32-2.73-2.37-5.72-4.3-9.09-5.63-.39-.15-.56-.34-.56-.78,0-1.34.13-2.66.34-3.97.07-.41.17-.58.65-.36,1.75.78,3.43,1.69,5.01,2.77.18.12.34.27.47.45,1.63,2.28,2.86,4.76,3.71,7.43.04.14.09.28,0,.42Z"/>
  <path class="cls-2" d="M42.47,36.28c.82-2.74,2.03-5.26,3.64-7.59.24-.34.51-.63.87-.86,1.5-.99,3.08-1.83,4.72-2.58.47-.21.67-.18.75.37.19,1.32.35,2.64.33,3.98,0,.32-.06.53-.4.66-3.49,1.38-6.6,3.36-9.4,5.85-.12.11-.24.25-.49.17Z"/>
  <path class="cls-10" d="M36.18,37.6c-.27-.77-.51-1.48-.77-2.18-.64-1.73-1.4-3.4-2.31-5-.19-.34-.2-.6.02-.92.58-.88,1.13-1.79,1.85-2.67.74,1.43,1.31,2.87,1.82,4.32.41,1.17.75,2.35,1.05,3.55.07.26.13.5-.06.76-.53.69-1.04,1.39-1.6,2.15Z"/>
  <path class="cls-10" d="M10.5,48.68c.67-.53,1.39-.86,2.18-1,.93-.16,1.79-.03,2.49.67,1.41,1.41,3.03,2.57,4.75,3.61-1.77.96-3.55.93-4.78-.34-.45-.47-1-.85-1.45-1.32-.87-.89-1.83-1.59-3.18-1.62Z"/>
  <path class="cls-10" d="M54.37,48.68c-1.49,0-2.45.89-3.4,1.82-.4.39-.86.72-1.24,1.12-1.25,1.3-3.06,1.28-4.78.34,1.72-1.04,3.33-2.19,4.75-3.6.82-.81,1.81-.85,2.85-.6.66.16,1.26.46,1.83.92Z"/>
  <path class="cls-1" d="M14.74,43.06c.4,1.12,1.2,1.88,2.1,2.57.83.63,1.65,1.27,2.46,1.92.99.79,1.44,2.36,1.05,3.64-1.85-1.09-3.64-2.26-5.04-3.89-1.05-1.22-1.07-2.72-.57-4.24Z"/>
  <path class="cls-1" d="M50.13,43.03c.5,1.55.47,3.06-.6,4.3-1.32,1.54-3.02,2.64-4.73,3.71-.27.17-.39.13-.41-.19-.09-1.26.14-2.42,1.16-3.28.63-.53,1.29-1.02,1.94-1.53,1.06-.83,2.2-1.6,2.63-3.01Z"/>
  <path class="cls-1" d="M53.39,44.36c1.15-1.64,1.96-3.32,2.71-5.05.34-.8,1.1-1.06,1.87-1.22.61-.13,1.23-.11,2.09.03-1.88.79-2.09,2.5-2.76,3.9-.83,1.75-1.78,2.38-3.91,2.34Z"/>
  <path class="cls-1" d="M11.44,44.31c-1.69.21-3.03-.5-3.68-1.92-.27-.59-.54-1.19-.77-1.8-.39-1.02-.89-1.94-2.01-2.4,1.33-.45,3.53-.11,4.11,1.71.5,1.57,1.41,2.96,2.36,4.4Z"/>
  <path class="cls-4" d="M54.29,35.14c1.11,1.29,1.61,2.69.92,4.34-.66,1.57-1.47,3.04-2.51,4.46-.79-1.27-1.02-2.49-.26-3.8.39-.67.7-1.38,1.07-2.06.49-.91.87-1.84.78-2.93Z"/>
  <path class="cls-4" d="M10.66,34.95c-.23,2.12.95,3.55,1.74,5.09.7,1.37.59,2.59-.24,3.9-1.19-1.69-2.28-3.39-2.76-5.35-.31-1.28.24-2.47,1.25-3.65Z"/>
  <path class="cls-7" d="M7.26,34.4c-1.39-.39-2.27-1.49-2.28-2.84,0-.51-.01-1.02.02-1.53.07-1.05.12-2.09-.75-2.99,1.81.28,2.8,1.4,2.73,3.01-.07,1.46.06,2.9.28,4.35Z"/>
  <path class="cls-6" d="M60.64,27.01c-.79.88-.87,1.8-.78,2.77.05.53.03,1.07.03,1.6,0,1.5-.75,2.52-2.3,3.04.32-1.68.31-3.34.31-5,0-1.12,1.08-2.05,2.73-2.41Z"/>
  <path class="cls-3" d="M54.99,26.75c1.13.43,1.93,1.2,2.16,2.37.33,1.63.03,3.27-.18,4.9-.04.29-.18.3-.39.14-.79-.59-1.34-1.34-1.33-2.36,0-.87.07-1.74.12-2.61.05-.83,0-1.64-.38-2.45Z"/>
  <path class="cls-3" d="M9.89,26.71c-.76,1.59-.29,3.23-.26,4.82.02.98-.34,1.74-1.04,2.37-.17.15-.33.44-.59.32-.21-.1-.11-.39-.15-.6-.23-1.27-.31-2.55-.25-3.84.07-1.52.94-2.47,2.28-3.08Z"/>
  <path class="cls-4" d="M57.32,24.38c-.3-1.44-.76-2.8-1.29-4.15-.38-.95.16-1.96,1.44-2.86-.54,1.53.41,2.65.83,3.9.4,1.21.11,2.23-.98,3.1Z"/>
  <path class="cls-4" d="M7.53,24.41c-1.16-1.07-1.39-1.97-.88-3.3.17-.45.35-.9.54-1.35q.39-.96.29-2.31c1.15.68,1.89,2.01,1.15,3.37-.3.55-.45,1.17-.64,1.77-.18.58-.3,1.17-.46,1.81Z"/>
  <path class="cls-11" d="M12.28,18.82c-1.26,1.1-1.41,2.55-1.85,3.86-.37,1.09-1.11,1.64-2.27,1.93.29-1.64.63-3.2,1.5-4.55.53-.82,1.42-1.2,2.62-1.24Z"/>
  <path class="cls-11" d="M56.71,24.59c-1.09-.24-1.86-.72-2.2-1.75-.23-.71-.48-1.42-.7-2.13-.21-.68-.52-1.3-1.12-1.76.88-.18,2.12.35,2.6,1.2.77,1.35,1.14,2.84,1.42,4.45Z"/>
</svg>